<svg width="28" height="28" viewBox="0 0 28 28" fill="none" xmlns="http://www.w3.org/2000/svg">
<g filter="url(#filter0_d_190_1946)">
<path d="M23.8155 0C23.4843 0 23.169 0.150021 22.9041 0.414764L22.27 1.02103L25.995 4.74331L26.6026 4.1097C27.1325 3.58021 27.1325 2.79128 26.6026 2.26179L24.7534 0.413882C24.4884 0.149139 24.1467 0 23.8155 0ZM21.6624 1.54522L20.6963 2.34562L24.6703 6.31677L25.5535 5.43429L21.6624 1.54522ZM20.1717 2.97924L12.1972 10.8668C12.1569 10.9002 12.1197 10.9371 12.0859 10.9771L12.0312 11.0045C11.9357 11.1153 11.8692 11.2481 11.8378 11.391L10.7613 15.1689C10.7151 15.3184 10.7107 15.4777 10.7484 15.6296C10.7861 15.7815 10.8645 15.9202 10.9752 16.0308C11.086 16.1415 11.2248 16.2199 11.3768 16.2575C11.5288 16.2952 11.6881 16.2907 11.8378 16.2446L15.6184 15.1689C15.7438 15.1389 15.8609 15.0812 15.9611 15.0001C16.0614 14.919 16.1422 14.8166 16.1977 14.7003L24.0363 6.95039L22.5456 5.35046V5.43341L21.4964 4.38503H21.5794L20.1717 2.97924ZM4.71811 3.5855C4.51352 3.62439 4.32926 3.73427 4.19789 3.89575C4.06651 4.05723 3.99647 4.25991 4.00014 4.46798V22.1175C4.00014 22.3516 4.09318 22.576 4.2588 22.7415C4.42441 22.907 4.64904 23 4.88325 23H22.5456C22.7798 23 23.0044 22.907 23.17 22.7415C23.3356 22.576 23.4287 22.3516 23.4287 22.1175V12.4103C23.4287 12.1762 23.3356 11.9518 23.17 11.7863C23.0044 11.6208 22.7798 11.5278 22.5456 11.5278C22.3113 11.5278 22.0867 11.6208 21.9211 11.7863C21.7555 11.9518 21.6624 12.1762 21.6624 12.4103V21.235H5.76637V5.35046H14.5975C14.8317 5.35046 15.0564 5.25748 15.222 5.09199C15.3876 4.92649 15.4806 4.70203 15.4806 4.46798C15.4806 4.23393 15.3876 4.00947 15.222 3.84398C15.0564 3.67848 14.8317 3.5855 14.5975 3.5855H4.88325C4.8556 3.5842 4.8279 3.5842 4.80024 3.5855C4.77258 3.5842 4.74488 3.5842 4.71723 3.5855H4.71811ZM13.3841 12.2453L14.5984 12.3273L14.6814 13.651L13.4671 14.0093L12.9982 13.5416L13.3841 12.2453Z" fill="white"/>
</g>
<defs>
<filter id="filter0_d_190_1946" x="0" y="0" width="31" height="31" filterUnits="userSpaceOnUse" color-interpolation-filters="sRGB">
<feFlood flood-opacity="0" result="BackgroundImageFix"/>
<feColorMatrix in="SourceAlpha" type="matrix" values="0 0 0 0 0 0 0 0 0 0 0 0 0 0 0 0 0 0 127 0" result="hardAlpha"/>
<feOffset dy="4"/>
<feGaussianBlur stdDeviation="2"/>
<feComposite in2="hardAlpha" operator="out"/>
<feColorMatrix type="matrix" values="0 0 0 0 0 0 0 0 0 0 0 0 0 0 0 0 0 0 0.25 0"/>
<feBlend mode="normal" in2="BackgroundImageFix" result="effect1_dropShadow_190_1946"/>
<feBlend mode="normal" in="SourceGraphic" in2="effect1_dropShadow_190_1946" result="shape"/>
</filter>
</defs>
</svg>
