<?xml version="1.0" encoding="utf-8" ?>
<svg baseProfile="tiny" height="240" version="1.2" width="240" xmlns="http://www.w3.org/2000/svg"
     xmlns:xlink="http://www.w3.org/1999/xlink"
     viewBox="0 0 240 240" preserveAspectRatio="xMidYMid meet"
>
    <defs/>
    <polyline fill="none"
              points="116.0,223.998 115.0,223.998 114.0,223.998 113.0,223.998 112.0,223.998 111.0,223.998 110.0,223.998 109.0,223.998 108.0,223.998 107.0,223.998 106.002,223.0 106.0,222.998 105.0,222.998 104.0,222.998 103.0,222.998 102.0,222.998 101.0,222.998 100.0,222.998 99.002,222.0 99.0,221.998 98.0,221.998 97.0,221.998 96.0,221.998 95.0,221.998 94.002,221.0 94.0,220.998 93.0,220.998 92.0,220.998 91.002,220.0 91.0,219.998 90.0,219.998 89.0,219.998 88.002,219.0 88.0,218.998 87.0,218.998 86.0,218.998 85.002,218.0 85.0,217.998 84.0,217.998 83.0,217.998 82.002,217.0 82.0,216.998 81.0,216.998 80.002,216.0 80.0,215.998 79.0,215.998 78.002,215.0 78.0,214.998 77.0,214.998 76.002,214.0 76.0,213.998 75.0,213.998 74.002,213.0 74.0,212.998 73.0,212.998 72.002,212.0 72.0,211.998 71.0,211.998 70.002,211.0 70.0,210.998 69.002,210.0 69.0,209.998 68.0,209.998 67.002,209.0 67.0,208.998 66.002,208.0 66.0,207.998 65.0,207.998 64.002,207.0 64.0,206.998 63.002,206.0 63.0,205.998 62.0,205.998 61.002,205.0 61.0,204.998 60.002,204.0 60.0,203.998 59.002,203.0 59.0,202.998 58.0,202.998 57.002,202.0 57.0,201.998 56.002,201.0 56.0,200.998 55.002,200.0 55.0,199.998 54.002,199.0 54.0,198.998 53.002,198.0 53.0,197.998 52.002,197.0 52.0,196.998 51.002,196.0 51.0,195.998 50.002,195.0 50.0,194.998 49.002,194.0 49.0,193.998 48.002,193.0 48.0,192.998 47.002,192.0 47.0,191.998 46.002,191.0 46.0,190.998 45.002,190.0 45.0,189.998 44.002,189.0 44.0,188.998 43.002,188.0 43.002,187.0 43.0,186.998 42.002,186.0 42.0,185.998 41.002,185.0 41.0,184.998 40.002,184.0 40.002,183.0 40.0,182.998 39.002,182.0 39.0,181.998 38.002,181.0 38.0,180.998 37.002,180.0 37.002,179.0 37.0,178.998 36.002,178.0 36.0,177.998 35.002,177.0 35.002,176.0 35.0,175.998 34.002,175.0 34.002,174.0 34.0,173.998 33.002,173.0 33.002,172.0 33.0,171.998 32.002,171.0 32.002,170.0 32.0,169.998 31.002,169.0 31.002,168.0 31.0,167.998 30.002,167.0 30.002,166.0 30.0,165.998 29.002,165.0 29.002,164.0 29.002,163.0 29.0,162.998 28.002,162.0 28.002,161.0 28.0,160.998 27.002,160.0 27.002,159.0 27.002,158.0 27.0,157.998 26.002,157.0 26.002,156.0 26.002,155.0 26.0,154.998 25.002,154.0 25.002,153.0 25.002,152.0 25.002,151.0 25.0,150.998 24.002,150.0 24.002,149.0 24.002,148.0 24.002,147.0 24.0,146.998 23.002,146.0 23.002,145.0 23.002,144.0 23.002,143.0 23.002,142.0 23.002,141.0 23.0,140.998 22.002,140.0 22.002,139.0 22.002,138.0 22.002,137.0 22.002,136.0 22.002,135.0 22.002,134.0 22.002,133.0 22.002,132.0 22.002,131.0 22.002,130.0 22.002,129.0 22.002,128.0 22.002,127.0 22.002,126.0 22.002,125.0 22.002,124.0 22.002,123.0 22.002,122.0 22.002,121.0 22.002,120.0 22.002,119.0 22.002,118.0 22.002,117.0 22.002,116.0 22.002,115.0 22.002,114.0 22.002,113.0 22.002,112.0 23.0,111.002 23.002,111.0 23.002,110.0 23.002,109.0 23.002,108.0 23.002,107.0 23.002,106.0 23.002,105.0 24.0,104.002 24.002,104.0 24.002,103.0 24.002,102.0 24.002,101.0 25.0,100.002 25.002,100.0 25.002,99.0 25.002,98.0 26.0,97.002 26.002,97.0 26.002,96.0 26.002,95.0 27.0,94.002 27.002,94.0 27.002,93.0 28.0,92.002 28.002,92.0 28.002,91.0 28.002,90.0 29.0,89.002 29.002,89.0 29.002,88.0 29.002,87.0 30.0,86.002 30.002,86.0 30.002,85.0 30.002,84.0 31.0,83.002 31.002,83.0 31.002,82.0 32.0,81.002 32.002,81.0 32.002,80.0 33.0,79.002 33.002,79.0 34.0,78.002 34.002,78.0 34.002,77.0 35.0,76.002 35.002,76.0 35.002,75.0 36.0,74.002 36.002,74.0 36.002,73.0 37.0,72.002 37.002,72.0 38.0,71.002 38.002,71.0 38.002,70.0 39.0,69.002 39.002,69.0 40.0,68.002 40.002,68.0 40.002,67.0 41.0,66.002 41.002,66.0 42.0,65.002 42.002,65.0 43.0,64.002 43.002,64.0 44.0,63.002 44.002,63.0 45.0,62.002 45.002,62.0 45.002,61.0 46.0,60.002 46.002,60.0 47.0,59.002 47.002,59.0 48.0,58.002 48.002,58.0 49.0,57.002 49.002,57.0 50.0,56.002 50.002,56.0 51.0,55.002 51.002,55.0 52.0,54.002 52.002,54.0 53.0,53.002 54.0,53.002 54.002,53.0 55.0,52.002 55.002,52.0 56.0,51.002 56.002,51.0 57.0,50.002 57.002,50.0 58.0,49.002 59.0,49.002 59.002,49.0 60.0,48.002 60.002,48.0 61.0,47.002 62.0,47.002 62.002,47.0 63.0,46.002 63.002,46.0 64.0,45.002 65.0,45.002 65.002,45.0 66.0,44.002 66.002,44.0 67.0,43.002 68.0,43.002 68.002,43.0 69.0,42.002 69.002,42.0 70.0,41.002 71.0,41.002 71.002,41.0 72.0,40.002 73.0,40.002 73.002,40.0 74.0,39.002 75.0,39.002 76.0,39.002 76.002,39.0 77.0,38.002 78.0,38.002 78.002,38.0 79.0,37.002 80.0,37.002 80.002,37.0 81.0,36.002 82.0,36.002 82.002,36.0 83.0,35.002 84.0,35.002 85.0,35.002 85.002,35.0 86.0,34.002 87.0,34.002 88.0,34.002 88.002,34.0 89.0,33.002 90.0,33.002 91.0,33.002 92.0,33.002 92.002,33.0 93.0,32.002 94.0,32.002 95.0,32.002 95.002,32.0 96.0,31.002 97.0,31.002 98.0,31.002 99.0,31.002 100.0,31.002 100.002,31.0 101.0,30.002 102.0,30.002 103.0,30.002 104.0,30.002 105.0,30.002 106.0,30.002 107.0,30.002 107.002,30.0 108.0,29.002 109.0,29.002 110.0,29.002 111.0,29.002 112.0,29.002 113.0,29.002 114.0,29.002 115.0,29.002 116.0,29.002 117.0,29.002 117.998,30.0 117.0,30.998 116.998,31.0 116.998,32.0 116.0,32.998 115.998,33.0 115.998,34.0 115.998,35.0 115.0,35.998 114.998,36.0 114.998,37.0 114.0,37.998 113.998,38.0 113.998,39.0 113.0,39.998 112.998,40.0 112.998,41.0 112.0,41.998 111.998,42.0 111.998,43.0 111.998,44.0 111.0,44.998 110.998,45.0 110.998,46.0 110.0,46.998 109.998,47.0 109.998,48.0 109.998,49.0 109.0,49.998 108.998,50.0 108.998,51.0 108.0,51.998 107.998,52.0 107.0,52.998 106.0,52.998 105.0,52.998 104.998,53.0 104.0,53.998 103.0,53.998 102.0,53.998 101.0,53.998 100.0,53.998 99.998,54.0 99.0,54.998 98.0,54.998 97.0,54.998 96.0,54.998 95.998,55.0 95.0,55.998 94.0,55.998 93.0,55.998 92.998,56.0 92.0,56.998 91.0,56.998 90.0,56.998 89.998,57.0 89.0,57.998 88.0,57.998 87.998,58.0 87.0,58.998 86.0,58.998 85.998,59.0 85.0,59.998 84.0,59.998 83.998,60.0 83.0,60.998 82.0,60.998 81.998,61.0 81.0,61.998 80.0,61.998 79.998,62.0 79.0,62.998 78.0,62.998 77.998,63.0 77.0,63.998 76.998,64.0 76.0,64.998 75.0,64.998 74.998,65.0 74.0,65.998 73.998,66.0 73.0,66.998 72.0,66.998 71.998,67.0 71.0,67.998 70.998,68.0 70.0,68.998 69.998,69.0 69.0,69.998 68.998,70.0 68.0,70.998 67.998,71.0 67.0,71.998 66.998,72.0 66.0,72.998 65.998,73.0 65.0,73.998 64.998,74.0 64.0,74.998 63.998,75.0 63.0,75.998 62.998,76.0 62.0,76.998 61.998,77.0 61.0,77.998 60.998,78.0 60.0,78.998 59.998,79.0 59.998,80.0 59.0,80.998 58.998,81.0 58.0,81.998 57.998,82.0 57.0,82.998 56.998,83.0 56.998,84.0 56.0,84.998 55.998,85.0 55.0,85.998 54.998,86.0 54.998,87.0 54.0,87.998 53.998,88.0 53.998,89.0 53.0,89.998 52.998,90.0 52.998,91.0 52.0,91.998 51.998,92.0 51.998,93.0 51.0,93.998 50.998,94.0 50.998,95.0 50.0,95.998 49.998,96.0 49.998,97.0 49.998,98.0 49.0,98.998 48.998,99.0 48.998,100.0 48.0,100.998 47.998,101.0 47.998,102.0 47.998,103.0 47.998,104.0 47.0,104.998 46.998,105.0 46.998,106.0 46.998,107.0 46.998,108.0 46.0,108.998 45.998,109.0 45.998,110.0 45.998,111.0 45.998,112.0 45.998,113.0 45.998,114.0 45.0,114.998 44.998,115.0 44.998,116.0 44.998,117.0 44.0,117.998 43.0,117.998 42.0,117.998 41.998,118.0 41.0,118.998 40.0,118.998 39.0,118.998 38.998,119.0 38.0,119.998 37.0,119.998 36.0,119.998 35.998,120.0 35.0,120.998 34.0,120.998 33.998,121.0 33.0,121.998 32.0,121.998 31.0,121.998 30.998,122.0 30.0,122.998 29.0,122.998 28.0,122.998 27.998,123.0 27.0,123.998 26.0,123.998 25.998,124.0 25.0,124.998 24.0,124.998 23.998,125.0 23.998,126.0 23.998,127.0 24.0,127.002 24.998,128.0 25.0,128.002 26.0,128.002 26.998,129.0 27.0,129.002 28.0,129.002 29.0,129.002 29.998,130.0 30.0,130.002 31.0,130.002 31.998,131.0 32.0,131.002 33.0,131.002 33.998,132.0 34.0,132.002 35.0,132.002 36.0,132.002 36.998,133.0 37.0,133.002 38.0,133.002 38.998,134.0 39.0,134.002 40.0,134.002 40.998,135.0 41.0,135.002 42.0,135.002 43.0,135.002 43.998,136.0 44.0,136.002 44.998,137.0 44.998,138.0 44.998,139.0 45.0,139.002 45.998,140.0 45.998,141.0 45.998,142.0 45.998,143.0 45.998,144.0 45.998,145.0 46.0,145.002 46.998,146.0 46.998,147.0 46.998,148.0 46.998,149.0 47.0,149.002 47.998,150.0 47.998,151.0 47.998,152.0 48.0,152.002 48.998,153.0 48.998,154.0 49.0,154.002 49.998,155.0 49.998,156.0 49.998,157.0 50.0,157.002 50.998,158.0 50.998,159.0 51.0,159.002 51.998,160.0 51.998,161.0 52.0,161.002 52.998,162.0 52.998,163.0 53.0,163.002 53.998,164.0 53.998,165.0 54.0,165.002 54.998,166.0 55.0,166.002 55.998,167.0 55.998,168.0 56.0,168.002 56.998,169.0 57.0,169.002 57.998,170.0 57.998,171.0 58.0,171.002 58.998,172.0 59.0,172.002 59.998,173.0 60.0,173.002 60.998,174.0 61.0,174.002 61.998,175.0 61.998,176.0 62.0,176.002 62.998,177.0 63.0,177.002 63.998,178.0 64.0,178.002 64.998,179.0 65.0,179.002 65.998,180.0 66.0,180.002 67.0,180.002 67.998,181.0 68.0,181.002 68.998,182.0 69.0,182.002 69.998,183.0 70.0,183.002 70.998,184.0 71.0,184.002 71.998,185.0 72.0,185.002 72.998,186.0 73.0,186.002 74.0,186.002 74.998,187.0 75.0,187.002 75.998,188.0 76.0,188.002 77.0,188.002 77.998,189.0 78.0,189.002 78.998,190.0 79.0,190.002 80.0,190.002 80.998,191.0 81.0,191.002 82.0,191.002 82.998,192.0 83.0,192.002 83.998,193.0 84.0,193.002 85.0,193.002 85.998,194.0 86.0,194.002 87.0,194.002 87.998,195.0 88.0,195.002 89.0,195.002 90.0,195.002 90.998,196.0 91.0,196.002 92.0,196.002 92.998,197.0 93.0,197.002 94.0,197.002 95.0,197.002 95.998,198.0 96.0,198.002 97.0,198.002 98.0,198.002 99.0,198.002 99.998,199.0 100.0,199.002 101.0,199.002 102.0,199.002 102.998,200.0 103.0,200.002 104.0,200.002 105.0,200.002 106.0,200.002 107.0,200.002 107.998,201.0 107.998,202.0 108.0,202.002 108.998,203.0 108.998,204.0 108.998,205.0 109.0,205.002 109.998,206.0 109.998,207.0 110.0,207.002 110.998,208.0 110.998,209.0 110.998,210.0 111.0,210.002 111.998,211.0 111.998,212.0 111.998,213.0 112.0,213.002 112.998,214.0 112.998,215.0 113.0,215.002 113.998,216.0 113.998,217.0 114.0,217.002 114.998,218.0 114.998,219.0 114.998,220.0 115.0,220.002 115.998,221.0 115.998,222.0 116.0,222.002 116.998,223.0 116.0,223.998"
              stroke="black" stroke-width="3"/>
    <polyline fill="none"
              points="131.0,223.998 130.0,223.998 129.0,223.998 128.0,223.998 127.0,223.998 126.0,223.998 125.0,223.998 124.0,223.998 123.0,223.998 122.0,223.998 121.0,223.998 120.002,223.0 121.0,222.002 121.002,222.0 121.002,221.0 122.0,220.002 122.002,220.0 122.002,219.0 123.0,218.002 123.002,218.0 123.002,217.0 123.002,216.0 124.0,215.002 124.002,215.0 124.002,214.0 125.0,213.002 125.002,213.0 125.002,212.0 126.0,211.002 126.002,211.0 126.002,210.0 126.002,209.0 127.0,208.002 127.002,208.0 127.002,207.0 127.002,206.0 128.0,205.002 128.002,205.0 128.002,204.0 129.0,203.002 129.002,203.0 129.002,202.0 129.002,201.0 130.0,200.002 131.0,200.002 132.0,200.002 133.0,200.002 133.002,200.0 134.0,199.002 135.0,199.002 136.0,199.002 137.0,199.002 138.0,199.002 138.002,199.0 139.0,198.002 140.0,198.002 141.0,198.002 141.002,198.0 142.0,197.002 143.0,197.002 144.0,197.002 144.002,197.0 145.0,196.002 146.0,196.002 147.0,196.002 147.002,196.0 148.0,195.002 149.0,195.002 149.002,195.0 150.0,194.002 151.0,194.002 151.002,194.0 152.0,193.002 153.0,193.002 154.0,193.002 154.002,193.0 155.0,192.002 155.002,192.0 156.0,191.002 157.0,191.002 157.002,191.0 158.0,190.002 159.0,190.002 159.002,190.0 160.0,189.002 160.002,189.0 161.0,188.002 162.0,188.002 162.002,188.0 163.0,187.002 163.002,187.0 164.0,186.002 164.002,186.0 165.0,185.002 166.0,185.002 166.002,185.0 167.0,184.002 167.002,184.0 168.0,183.002 168.002,183.0 169.0,182.002 169.002,182.0 170.0,181.002 170.002,181.0 171.0,180.002 171.002,180.0 172.0,179.002 172.002,179.0 173.0,178.002 173.002,178.0 174.0,177.002 174.002,177.0 175.0,176.002 175.002,176.0 176.0,175.002 176.002,175.0 176.002,174.0 177.0,173.002 177.002,173.0 178.0,172.002 178.002,172.0 179.0,171.002 179.002,171.0 179.002,170.0 180.0,169.002 180.002,169.0 181.0,168.002 181.002,168.0 181.002,167.0 182.0,166.002 182.002,166.0 182.002,165.0 183.0,164.002 183.002,164.0 183.002,163.0 184.0,162.002 184.002,162.0 185.0,161.002 185.002,161.0 185.002,160.0 186.0,159.002 186.002,159.0 186.002,158.0 187.0,157.002 187.002,157.0 187.002,156.0 188.0,155.002 188.002,155.0 188.002,154.0 189.0,153.002 189.002,153.0 189.002,152.0 189.002,151.0 190.0,150.002 190.002,150.0 190.002,149.0 190.002,148.0 190.002,147.0 191.0,146.002 191.002,146.0 191.002,145.0 191.002,144.0 192.0,143.002 192.002,143.0 192.002,142.0 192.002,141.0 192.002,140.0 192.002,139.0 192.002,138.0 192.002,137.0 193.0,136.002 193.002,136.0 194.0,135.002 195.0,135.002 196.0,135.002 196.002,135.0 197.0,134.002 198.0,134.002 198.002,134.0 199.0,133.002 200.0,133.002 200.002,133.0 201.0,132.002 202.0,132.002 202.002,132.0 203.0,131.002 204.0,131.002 205.0,131.002 205.002,131.0 206.0,130.002 206.002,130.0 207.0,129.002 208.0,129.002 208.002,129.0 209.0,128.002 210.0,128.002 210.002,128.0 211.0,127.002 212.0,127.002 212.002,127.0 213.0,126.002 213.002,126.0 213.002,125.0 213.0,124.998 212.0,124.998 211.002,124.0 211.0,123.998 210.0,123.998 209.0,123.998 208.002,123.0 208.0,122.998 207.0,122.998 206.002,122.0 206.0,121.998 205.0,121.998 204.0,121.998 203.002,121.0 203.0,120.998 202.0,120.998 201.002,120.0 201.0,119.998 200.0,119.998 199.0,119.998 198.002,119.0 198.0,118.998 197.0,118.998 196.002,118.0 196.0,117.998 195.0,117.998 194.0,117.998 193.002,117.0 193.002,116.0 193.002,115.0 193.002,114.0 193.0,113.998 192.002,113.0 192.002,112.0 192.002,111.0 192.002,110.0 192.002,109.0 192.0,108.998 191.002,108.0 191.002,107.0 191.002,106.0 191.002,105.0 191.0,104.998 190.002,104.0 190.002,103.0 190.002,102.0 190.0,101.998 189.002,101.0 189.002,100.0 189.002,99.0 189.0,98.998 188.002,98.0 188.002,97.0 188.002,96.0 188.0,95.998 187.002,95.0 187.002,94.0 187.0,93.998 186.002,93.0 186.002,92.0 186.0,91.998 185.002,91.0 185.002,90.0 185.0,89.998 184.002,89.0 184.002,88.0 184.0,87.998 183.002,87.0 183.0,86.998 182.002,86.0 182.002,85.0 182.0,84.998 181.002,84.0 181.0,83.998 180.002,83.0 180.002,82.0 180.0,81.998 179.002,81.0 179.0,80.998 178.002,80.0 178.0,79.998 177.002,79.0 177.0,78.998 176.002,78.0 176.002,77.0 176.0,76.998 175.002,76.0 175.0,75.998 174.002,75.0 174.0,74.998 173.002,74.0 173.0,73.998 172.002,73.0 172.0,72.998 171.002,72.0 171.0,71.998 170.002,71.0 170.0,70.998 169.002,70.0 169.0,69.998 168.002,69.0 168.0,68.998 167.0,68.998 166.002,68.0 166.0,67.998 165.002,67.0 165.0,66.998 164.002,66.0 164.0,65.998 163.0,65.998 162.002,65.0 162.0,64.998 161.002,64.0 161.0,63.998 160.0,63.998 159.002,63.0 159.0,62.998 158.0,62.998 157.002,62.0 157.0,61.998 156.0,61.998 155.002,61.0 155.0,60.998 154.002,60.0 154.0,59.998 153.0,59.998 152.002,59.0 152.0,58.998 151.0,58.998 150.0,58.998 149.002,58.0 149.0,57.998 148.0,57.998 147.002,57.0 147.0,56.998 146.0,56.998 145.0,56.998 144.002,56.0 144.0,55.998 143.0,55.998 142.0,55.998 141.002,55.0 141.0,54.998 140.0,54.998 139.0,54.998 138.002,54.0 138.0,53.998 137.0,53.998 136.0,53.998 135.0,53.998 134.002,53.0 134.0,52.998 133.0,52.998 132.0,52.998 131.0,52.998 130.002,52.0 130.0,51.998 129.002,51.0 129.002,50.0 129.0,49.998 128.002,49.0 128.002,48.0 128.0,47.998 127.002,47.0 127.002,46.0 127.0,45.998 126.002,45.0 126.002,44.0 126.002,43.0 126.0,42.998 125.002,42.0 125.002,41.0 125.0,40.998 124.002,40.0 124.002,39.0 124.002,38.0 124.0,37.998 123.002,37.0 123.002,36.0 123.0,35.998 122.002,35.0 122.002,34.0 122.0,33.998 121.002,33.0 121.002,32.0 121.002,31.0 121.0,30.998 120.002,30.0 121.0,29.002 122.0,29.002 123.0,29.002 124.0,29.002 125.0,29.002 126.0,29.002 127.0,29.002 128.0,29.002 129.0,29.002 130.0,29.002 131.0,29.002 131.998,30.0 132.0,30.002 133.0,30.002 134.0,30.002 135.0,30.002 136.0,30.002 137.0,30.002 137.998,31.0 138.0,31.002 139.0,31.002 140.0,31.002 141.0,31.002 142.0,31.002 142.998,32.0 143.0,32.002 144.0,32.002 145.0,32.002 146.0,32.002 146.998,33.0 147.0,33.002 148.0,33.002 149.0,33.002 149.998,34.0 150.0,34.002 151.0,34.002 152.0,34.002 152.998,35.0 153.0,35.002 154.0,35.002 155.0,35.002 155.998,36.0 156.0,36.002 157.0,36.002 157.998,37.0 158.0,37.002 159.0,37.002 159.998,38.0 160.0,38.002 161.0,38.002 161.998,39.0 162.0,39.002 163.0,39.002 163.998,40.0 164.0,40.002 165.0,40.002 165.998,41.0 166.0,41.002 167.0,41.002 167.998,42.0 168.0,42.002 169.0,42.002 169.998,43.0 170.0,43.002 171.0,43.002 171.998,44.0 172.0,44.002 172.998,45.0 173.0,45.002 174.0,45.002 174.998,46.0 175.0,46.002 175.998,47.0 176.0,47.002 176.998,48.0 177.0,48.002 178.0,48.002 178.998,49.0 179.0,49.002 179.998,50.0 180.0,50.002 180.998,51.0 181.0,51.002 182.0,51.002 182.998,52.0 183.0,52.002 183.998,53.0 184.0,53.002 184.998,54.0 185.0,54.002 185.998,55.0 186.0,55.002 186.998,56.0 187.0,56.002 187.998,57.0 188.0,57.002 188.998,58.0 189.0,58.002 189.998,59.0 190.0,59.002 190.998,60.0 191.0,60.002 191.998,61.0 192.0,61.002 192.998,62.0 193.0,62.002 193.998,63.0 194.0,63.002 194.998,64.0 194.998,65.0 195.0,65.002 195.998,66.0 196.0,66.002 196.998,67.0 197.0,67.002 197.998,68.0 197.998,69.0 198.0,69.002 198.998,70.0 199.0,70.002 199.998,71.0 199.998,72.0 200.0,72.002 200.998,73.0 201.0,73.002 201.998,74.0 201.998,75.0 202.0,75.002 202.998,76.0 202.998,77.0 203.0,77.002 203.998,78.0 203.998,79.0 204.0,79.002 204.998,80.0 204.998,81.0 205.0,81.002 205.998,82.0 205.998,83.0 206.0,83.002 206.998,84.0 206.998,85.0 207.0,85.002 207.998,86.0 207.998,87.0 208.0,87.002 208.998,88.0 208.998,89.0 209.0,89.002 209.998,90.0 209.998,91.0 209.998,92.0 210.0,92.002 210.998,93.0 210.998,94.0 210.998,95.0 211.0,95.002 211.998,96.0 211.998,97.0 211.998,98.0 212.0,98.002 212.998,99.0 212.998,100.0 212.998,101.0 213.0,101.002 213.998,102.0 213.998,103.0 213.998,104.0 213.998,105.0 213.998,106.0 213.998,107.0 214.0,107.002 214.998,108.0 214.998,109.0 214.998,110.0 214.998,111.0 214.998,112.0 214.998,113.0 214.998,114.0 215.0,114.002 215.998,115.0 215.998,116.0 215.998,117.0 215.998,118.0 215.998,119.0 215.998,120.0 215.998,121.0 215.998,122.0 215.998,123.0 215.998,124.0 215.998,125.0 215.998,126.0 215.998,127.0 215.998,128.0 215.998,129.0 215.998,130.0 215.998,131.0 215.998,132.0 215.998,133.0 215.998,134.0 215.998,135.0 215.998,136.0 215.998,137.0 215.998,138.0 215.998,139.0 215.0,139.998 214.998,140.0 214.998,141.0 214.998,142.0 214.998,143.0 214.998,144.0 214.998,145.0 214.998,146.0 214.0,146.998 213.998,147.0 213.998,148.0 213.998,149.0 213.998,150.0 213.998,151.0 213.0,151.998 212.998,152.0 212.998,153.0 212.998,154.0 212.0,154.998 211.998,155.0 211.998,156.0 211.998,157.0 211.0,157.998 210.998,158.0 210.998,159.0 210.998,160.0 210.0,160.998 209.998,161.0 209.998,162.0 209.0,162.998 208.998,163.0 208.998,164.0 208.0,164.998 207.998,165.0 207.998,166.0 207.0,166.998 206.998,167.0 206.998,168.0 206.998,169.0 206.0,169.998 205.998,170.0 205.998,171.0 205.0,171.998 204.998,172.0 204.998,173.0 204.0,173.998 203.998,174.0 203.998,175.0 203.0,175.998 202.998,176.0 202.0,176.998 201.998,177.0 201.998,178.0 201.0,178.998 200.998,179.0 200.0,179.998 199.998,180.0 199.998,181.0 199.0,181.998 198.998,182.0 198.0,182.998 197.998,183.0 197.998,184.0 197.0,184.998 196.998,185.0 196.0,185.998 195.998,186.0 195.0,186.998 194.998,187.0 194.0,187.998 193.998,188.0 193.998,189.0 193.0,189.998 192.998,190.0 192.0,190.998 191.998,191.0 191.0,191.998 190.998,192.0 190.0,192.998 189.998,193.0 189.0,193.998 188.998,194.0 188.0,194.998 187.998,195.0 187.0,195.998 186.998,196.0 186.0,196.998 185.998,197.0 185.0,197.998 184.998,198.0 184.0,198.998 183.998,199.0 183.0,199.998 182.998,200.0 182.0,200.998 181.0,200.998 180.998,201.0 180.0,201.998 179.998,202.0 179.0,202.998 178.998,203.0 178.0,203.998 177.998,204.0 177.0,204.998 176.0,204.998 175.998,205.0 175.0,205.998 174.998,206.0 174.0,206.998 173.998,207.0 173.0,207.998 172.0,207.998 171.998,208.0 171.0,208.998 170.0,208.998 169.998,209.0 169.0,209.998 168.998,210.0 168.0,210.998 167.0,210.998 166.998,211.0 166.0,211.998 165.998,212.0 165.0,212.998 164.0,212.998 163.998,213.0 163.0,213.998 162.0,213.998 161.998,214.0 161.0,214.998 160.0,214.998 159.998,215.0 159.0,215.998 158.0,215.998 157.998,216.0 157.0,216.998 156.0,216.998 155.0,216.998 154.998,217.0 154.0,217.998 153.0,217.998 152.998,218.0 152.0,218.998 151.0,218.998 150.0,218.998 149.998,219.0 149.0,219.998 148.0,219.998 147.0,219.998 146.998,220.0 146.0,220.998 145.0,220.998 144.0,220.998 143.0,220.998 142.998,221.0 142.0,221.998 141.0,221.998 140.0,221.998 139.0,221.998 138.998,222.0 138.0,222.998 137.0,222.998 136.0,222.998 135.0,222.998 134.0,222.998 133.0,222.998 132.0,222.998 131.998,223.0 131.0,223.998"
              stroke="black" stroke-width="3"/>
    <polyline fill="none"
              points="133.0,103.998 132.002,103.0 132.0,102.998 131.002,102.0 131.0,101.998 130.0,101.998 129.002,101.0 129.0,100.998 128.0,100.998 127.0,100.998 126.002,100.0 126.0,99.998 125.0,99.998 124.0,99.998 123.002,99.0 123.0,98.998 122.0,98.998 121.0,98.998 120.0,98.998 119.0,98.998 118.0,98.998 117.0,98.998 116.0,98.998 115.0,98.998 114.998,99.0 114.0,99.998 113.0,99.998 112.0,99.998 111.0,99.998 110.998,100.0 110.0,100.998 109.0,100.998 108.998,101.0 108.0,101.998 107.0,101.998 106.998,102.0 106.0,102.998 105.0,102.998 104.998,103.0 104.0,103.998 103.002,103.0 103.002,102.0 104.0,101.002 104.002,101.0 104.002,100.0 104.002,99.0 104.002,98.0 105.0,97.002 105.002,97.0 105.002,96.0 105.002,95.0 106.0,94.002 106.002,94.0 106.002,93.0 106.002,92.0 107.0,91.002 107.002,91.0 107.002,90.0 107.002,89.0 107.002,88.0 108.0,87.002 108.002,87.0 108.002,86.0 108.002,85.0 109.0,84.002 109.002,84.0 109.002,83.0 109.002,82.0 109.002,81.0 110.0,80.002 110.002,80.0 110.002,79.0 110.002,78.0 111.0,77.002 111.002,77.0 111.002,76.0 111.002,75.0 111.002,74.0 112.0,73.002 112.002,73.0 112.002,72.0 112.002,71.0 113.0,70.002 113.002,70.0 113.002,69.0 113.002,68.0 114.0,67.002 114.002,67.0 114.002,66.0 114.002,65.0 114.002,64.0 115.0,63.002 115.002,63.0 115.002,62.0 115.002,61.0 116.0,60.002 116.002,60.0 116.002,59.0 116.002,58.0 117.0,57.002 117.002,57.0 117.002,56.0 117.002,55.0 117.002,54.0 118.0,53.002 118.002,53.0 119.0,52.002 119.998,53.0 119.998,54.0 119.998,55.0 120.0,55.002 120.998,56.0 120.998,57.0 120.998,58.0 121.0,58.002 121.998,59.0 121.998,60.0 121.998,61.0 122.0,61.002 122.998,62.0 122.998,63.0 122.998,64.0 123.0,64.002 123.998,65.0 123.998,66.0 123.998,67.0 123.998,68.0 124.0,68.002 124.998,69.0 124.998,70.0 124.998,71.0 124.998,72.0 125.0,72.002 125.998,73.0 125.998,74.0 125.998,75.0 126.0,75.002 126.998,76.0 126.998,77.0 126.998,78.0 126.998,79.0 126.998,80.0 127.0,80.002 127.998,81.0 127.998,82.0 127.998,83.0 128.0,83.002 128.998,84.0 128.998,85.0 128.998,86.0 128.998,87.0 129.0,87.002 129.998,88.0 129.998,89.0 129.998,90.0 130.0,90.002 130.998,91.0 130.998,92.0 130.998,93.0 131.0,93.002 131.998,94.0 131.998,95.0 131.998,96.0 132.0,96.002 132.998,97.0 132.998,98.0 132.998,99.0 133.0,99.002 133.998,100.0 133.998,101.0 133.998,102.0 133.998,103.0 133.0,103.998"
              stroke="black" stroke-width="3"/>
    <polyline fill="none"
              points="95.0,142.998 94.0,142.998 93.0,142.998 92.002,142.0 92.0,141.998 91.0,141.998 90.0,141.998 89.002,141.0 89.0,140.998 88.0,140.998 87.0,140.998 86.0,140.998 85.002,140.0 85.0,139.998 84.0,139.998 83.0,139.998 82.002,139.0 82.0,138.998 81.0,138.998 80.0,138.998 79.0,138.998 78.002,138.0 78.0,137.998 77.0,137.998 76.0,137.998 75.002,137.0 75.0,136.998 74.0,136.998 73.0,136.998 72.0,136.998 71.002,136.0 71.0,135.998 70.0,135.998 69.0,135.998 68.002,135.0 68.0,134.998 67.0,134.998 66.0,134.998 65.002,134.0 65.0,133.998 64.0,133.998 63.0,133.998 62.002,133.0 62.0,132.998 61.0,132.998 60.0,132.998 59.002,132.0 59.0,131.998 58.0,131.998 57.0,131.998 56.0,131.998 55.002,131.0 55.0,130.998 54.0,130.998 53.0,130.998 52.002,130.0 52.0,129.998 51.0,129.998 50.0,129.998 49.002,129.0 49.0,128.998 48.0,128.998 47.0,128.998 46.0,128.998 45.002,128.0 45.002,127.0 46.0,126.002 46.002,126.0 47.0,125.002 48.0,125.002 49.0,125.002 49.002,125.0 50.0,124.002 51.0,124.002 52.0,124.002 52.002,124.0 53.0,123.002 54.0,123.002 55.0,123.002 55.002,123.0 56.0,122.002 57.0,122.002 58.0,122.002 58.002,122.0 59.0,121.002 60.0,121.002 61.0,121.002 61.002,121.0 62.0,120.002 63.0,120.002 64.0,120.002 64.002,120.0 65.0,119.002 66.0,119.002 67.0,119.002 67.002,119.0 68.0,118.002 69.0,118.002 70.0,118.002 71.0,118.002 71.002,118.0 72.0,117.002 73.0,117.002 74.0,117.002 74.002,117.0 75.0,116.002 76.0,116.002 77.0,116.002 77.002,116.0 78.0,115.002 79.0,115.002 80.0,115.002 80.002,115.0 81.0,114.002 82.0,114.002 83.0,114.002 83.002,114.0 84.0,113.002 85.0,113.002 86.0,113.002 87.0,113.002 87.002,113.0 88.0,112.002 89.0,112.002 90.0,112.002 91.0,112.002 91.002,112.0 92.0,111.002 93.0,111.002 93.002,111.0 94.0,110.002 94.998,111.0 94.998,112.0 94.998,113.0 94.0,113.998 93.998,114.0 93.998,115.0 93.998,116.0 93.0,116.998 92.998,117.0 92.998,118.0 92.998,119.0 92.998,120.0 92.0,120.998 91.998,121.0 91.998,122.0 91.998,123.0 91.998,124.0 91.998,125.0 91.998,126.0 91.998,127.0 91.998,128.0 91.998,129.0 91.998,130.0 91.998,131.0 91.998,132.0 92.0,132.002 92.998,133.0 92.998,134.0 92.998,135.0 92.998,136.0 93.0,136.002 93.998,137.0 93.998,138.0 93.998,139.0 94.0,139.002 94.998,140.0 94.998,141.0 95.0,141.002 95.998,142.0 95.0,142.998"
              stroke="black" stroke-width="3"/>
    <polyline fill="none"
              points="145.0,142.998 144.0,142.998 143.0,142.998 142.002,142.0 143.0,141.002 143.002,141.0 143.002,140.0 144.0,139.002 144.002,139.0 144.002,138.0 144.002,137.0 145.0,136.002 145.002,136.0 145.002,135.0 145.002,134.0 145.002,133.0 146.0,132.002 146.002,132.0 146.002,131.0 146.002,130.0 146.002,129.0 146.002,128.0 146.002,127.0 146.002,126.0 146.002,125.0 146.002,124.0 146.002,123.0 146.002,122.0 146.002,121.0 146.002,120.0 146.0,119.998 145.002,119.0 145.002,118.0 145.002,117.0 145.0,116.998 144.002,116.0 144.002,115.0 144.0,114.998 143.002,114.0 143.002,113.0 143.0,112.998 142.002,112.0 143.0,111.002 144.0,111.002 145.0,111.002 146.0,111.002 146.998,112.0 147.0,112.002 148.0,112.002 149.0,112.002 149.998,113.0 150.0,113.002 151.0,113.002 152.0,113.002 152.998,114.0 153.0,114.002 154.0,114.002 155.0,114.002 155.998,115.0 156.0,115.002 157.0,115.002 158.0,115.002 159.0,115.002 159.998,116.0 160.0,116.002 161.0,116.002 162.0,116.002 162.998,117.0 163.0,117.002 164.0,117.002 165.0,117.002 166.0,117.002 166.998,118.0 167.0,118.002 168.0,118.002 169.0,118.002 169.998,119.0 170.0,119.002 171.0,119.002 172.0,119.002 172.998,120.0 173.0,120.002 174.0,120.002 175.0,120.002 175.998,121.0 176.0,121.002 177.0,121.002 178.0,121.002 178.998,122.0 179.0,122.002 180.0,122.002 181.0,122.002 181.998,123.0 182.0,123.002 183.0,123.002 184.0,123.002 184.998,124.0 185.0,124.002 186.0,124.002 187.0,124.002 188.0,124.002 188.998,125.0 189.0,125.002 190.0,125.002 191.0,125.002 191.998,126.0 192.0,126.002 193.0,126.002 193.998,127.0 193.0,127.998 192.0,127.998 191.998,128.0 191.0,128.998 190.0,128.998 189.0,128.998 188.0,128.998 187.998,129.0 187.0,129.998 186.0,129.998 185.998,130.0 185.0,130.998 184.0,130.998 183.0,130.998 182.998,131.0 182.0,131.998 181.0,131.998 180.0,131.998 179.998,132.0 179.0,132.998 178.0,132.998 177.0,132.998 176.0,132.998 175.998,133.0 175.0,133.998 174.0,133.998 173.0,133.998 172.998,134.0 172.0,134.998 171.0,134.998 170.0,134.998 169.998,135.0 169.0,135.998 168.0,135.998 167.0,135.998 166.0,135.998 165.998,136.0 165.0,136.998 164.0,136.998 163.0,136.998 162.998,137.0 162.0,137.998 161.0,137.998 160.0,137.998 159.0,137.998 158.998,138.0 158.0,138.998 157.0,138.998 156.0,138.998 155.998,139.0 155.0,139.998 154.0,139.998 153.0,139.998 152.998,140.0 152.0,140.998 151.0,140.998 150.0,140.998 149.0,140.998 148.998,141.0 148.0,141.998 147.0,141.998 146.0,141.998 145.998,142.0 145.0,142.998"
              stroke="black" stroke-width="3"/>
    <polyline fill="none"
              points="118.0,201.998 117.002,201.0 117.002,200.0 117.002,199.0 117.0,198.998 116.002,198.0 116.002,197.0 116.002,196.0 116.002,195.0 116.0,194.998 115.002,194.0 115.002,193.0 115.002,192.0 115.0,191.998 114.002,191.0 114.002,190.0 114.002,189.0 114.0,188.998 113.002,188.0 113.002,187.0 113.002,186.0 113.002,185.0 113.0,184.998 112.002,184.0 112.002,183.0 112.002,182.0 112.0,181.998 111.002,181.0 111.002,180.0 111.002,179.0 111.0,178.998 110.002,178.0 110.002,177.0 110.002,176.0 110.002,175.0 110.0,174.998 109.002,174.0 109.002,173.0 109.002,172.0 109.0,171.998 108.002,171.0 108.002,170.0 108.002,169.0 108.002,168.0 108.0,167.998 107.002,167.0 107.002,166.0 107.002,165.0 107.002,164.0 107.0,163.998 106.002,163.0 106.002,162.0 106.002,161.0 106.0,160.998 105.002,160.0 105.002,159.0 105.002,158.0 105.002,157.0 105.0,156.998 104.002,156.0 104.002,155.0 104.002,154.0 104.0,153.998 103.002,153.0 103.002,152.0 103.002,151.0 103.002,150.0 104.0,149.002 105.0,149.002 105.998,150.0 106.0,150.002 106.998,151.0 107.0,151.002 108.0,151.002 108.998,152.0 109.0,152.002 110.0,152.002 111.0,152.002 111.998,153.0 112.0,153.002 113.0,153.002 114.0,153.002 115.0,153.002 116.0,153.002 117.0,153.002 117.998,154.0 118.0,154.002 119.0,154.002 119.002,154.0 120.0,153.002 121.0,153.002 122.0,153.002 123.0,153.002 124.0,153.002 125.0,153.002 126.0,153.002 126.002,153.0 127.0,152.002 128.0,152.002 129.0,152.002 129.002,152.0 130.0,151.002 130.002,151.0 131.0,150.002 132.0,150.002 132.002,150.0 133.0,149.002 133.998,150.0 133.998,151.0 133.998,152.0 133.998,153.0 133.0,153.998 132.998,154.0 132.998,155.0 132.998,156.0 132.998,157.0 132.0,157.998 131.998,158.0 131.998,159.0 131.998,160.0 131.0,160.998 130.998,161.0 130.998,162.0 130.998,163.0 130.0,163.998 129.998,164.0 129.998,165.0 129.998,166.0 129.998,167.0 129.0,167.998 128.998,168.0 128.998,169.0 128.998,170.0 128.998,171.0 128.0,171.998 127.998,172.0 127.998,173.0 127.998,174.0 127.0,174.998 126.998,175.0 126.998,176.0 126.998,177.0 126.998,178.0 126.0,178.998 125.998,179.0 125.998,180.0 125.998,181.0 125.0,181.998 124.998,182.0 124.998,183.0 124.998,184.0 124.998,185.0 124.0,185.998 123.998,186.0 123.998,187.0 123.998,188.0 123.0,188.998 122.998,189.0 122.998,190.0 122.998,191.0 122.0,191.998 121.998,192.0 121.998,193.0 121.998,194.0 121.0,194.998 120.998,195.0 120.998,196.0 120.998,197.0 120.0,197.998 119.998,198.0 119.998,199.0 119.998,200.0 119.0,200.998 118.998,201.0 118.0,201.998"
              stroke="black" stroke-width="3"/>
</svg>